<?xml version="1.0" encoding="UTF-8" standalone="no"?><!DOCTYPE svg PUBLIC "-//W3C//DTD SVG 1.1//EN" "http://www.w3.org/Graphics/SVG/1.1/DTD/svg11.dtd"><svg width="100%" height="100%" viewBox="0 0 386 90" version="1.1" xmlns="http://www.w3.org/2000/svg" xmlns:xlink="http://www.w3.org/1999/xlink" xml:space="preserve" xmlns:serif="http://www.serif.com/" style="fill-rule:evenodd;clip-rule:evenodd;stroke-linejoin:round;stroke-miterlimit:1.41421;"><path d="M219.1,46.299c0,2.601 -2.101,4.7 -4.7,4.7c-2.601,0 -4.7,-2.099 -4.7,-4.7c0,-2.6 2.099,-4.6 4.7,-4.6c2.7,-0.1 4.7,2 4.7,4.6" style="fill:#f38b00;fill-rule:nonzero;"/><path d="M45.3,87.4c-18.4,-5.601 -31.8,-22.601 -31.8,-42.7c0,-20.3 13.7,-37.401 32.4,-42.901c1.9,-0.599 1.4,-1.799 -0.9,-1.799c-24.9,0 -45,20 -45,44.7c0,24.7 20.2,44.7 45,44.7c2.3,-0.101 2.4,-1.4 0.3,-2" style="fill:#009bde;fill-rule:nonzero;"/><path d="M22,55.099c-0.1,-1.199 -0.2,-2.399 -0.2,-3.6c0,-19.6 15.9,-35.5 35.5,-35.5c18.5,0 24.1,8.3 24.8,7.701c0.8,-0.601 -6.7,-17 -28.5,-17c-19.6,0 -35.5,15.899 -35.5,35.5c0,4.5 0.8,8.899 2.4,12.799c0.7,1.701 1.7,1.8 1.5,0.1" style="fill:#009bde;fill-rule:nonzero;"/><path d="M36.9,29.6c9.2,-4 20.8,-4.1 32.2,-0.2c7.6,2.7 12.1,6.5 12.4,6.3c0.6,-0.3 -4.4,-8.3 -13.6,-11.7c-11,-4.2 -22.9,-2 -31.6,4.8c-0.9,0.8 -0.5,1.3 0.6,0.8" style="fill:#009bde;fill-rule:nonzero;"/><path d="M66.7,65.4l-9,0l7.7,-15.7l0.1,0l1.2,15.7Zm0.4,7l0.5,6.199l9.8,0l-3.3,-36.199l-14.7,0l-18.5,36.199l10,0l3.1,-6.199l13.1,0Z" style="fill:#f38b00;fill-rule:nonzero;"/><path d="M91.2,62.799l1.5,0l7,-9.5l9.1,0l-9.7,12.2l6,13.1l-9.7,0l-3.9,-10.199l-1.4,0l-2.2,10.199l-8.3,0l7.7,-36.1l8.3,0l-4.4,20.3Z" style="fill:#f38b00;fill-rule:nonzero;"/><path d="M119.5,68.2c2.7,0 4.5,0.2 4,2.3c-0.6,2.7 -1.7,3.099 -5.2,3.099c-1.3,0 -3.6,0 -3,-2.699c0.5,-2.4 2.1,-2.7 4.2,-2.7m2.3,10.399l8.3,0l3.4,-15.799c1.8,-8.701 -1.5,-9.8 -10,-9.8c-5.9,0 -11.6,0 -13.3,7.8l8.3,0c0.5,-2.3 1.9,-2.701 4,-2.701c3.6,0 3.4,1.5 2.9,3.801l-0.8,4l-0.4,0c-0.3,-2.9 -3.9,-2.9 -6.3,-2.9c-6,0 -9.6,1.9 -10.9,8c-1.4,6.5 1.7,7.9 7.5,7.9c2.9,0 6.8,-0.6 8.1,-4.1l0.3,0l-1.1,3.799Z" style="fill:#f38b00;fill-rule:nonzero;"/><path d="M146.8,53.299l-0.8,3.601l0.3,0c1.6,-3 4.9,-3.901 7.8,-3.901c3.6,0 7.1,0.6 6.6,5l0.4,0c1.2,-3.599 4.9,-5 8.1,-5c5.8,0 8.3,2.401 7.1,8.3l-3.7,17.3l-8.3,0l3.1,-14.699c0.4,-2.601 0.9,-4.601 -2.4,-4.601c-3.2,0 -4.3,2.2 -4.9,4.9l-3.1,14.4l-8.3,0l3.3,-15.3c0.4,-2.3 0.6,-3.899 -2.3,-3.899c-3.4,0 -4.4,1.799 -5.1,4.899l-3.1,14.4l-8.3,0l5.4,-25.299l8.2,-0.101Z" style="fill:#f38b00;fill-rule:nonzero;"/><path d="M189.299,68.2c2.7,0 4.5,0.2 4,2.3c-0.6,2.7 -1.699,3.099 -5.199,3.099c-1.301,0 -3.601,0 -3.001,-2.699c0.6,-2.4 2.2,-2.7 4.2,-2.7m2.301,10.399l8.301,0l3.399,-15.799c1.9,-8.701 -1.5,-9.8 -10,-9.8c-5.899,0 -11.7,0 -13.301,7.8l8.301,0c0.5,-2.3 1.9,-2.701 3.9,-2.701c3.6,0 3.4,1.5 3,3.801l-0.9,4l-0.399,0c-0.3,-2.9 -3.901,-2.9 -6.3,-2.9c-6.001,0 -9.601,1.9 -10.901,8c-1.4,6.5 1.701,7.9 7.5,7.9c2.901,0 6.8,-0.6 8.1,-4.1l0.301,0l-1,3.799Z" style="fill:#f38b00;fill-rule:nonzero;"/><path d="M211.9,78.599l-8.3,0l5.4,-25.3l8.299,0l-5.399,25.3Z" style="fill:#f38b00;fill-rule:nonzero;"/><path d="M248.299,56.099l13.2,0l-0.7,3.601l-8.8,0l-1.099,5.5l7.799,0l-0.7,3.599l-7.899,0l-1.301,6.3l8.9,0l-0.799,3.601l-13.401,0l4.8,-22.601Z" style="fill:#858588;fill-rule:nonzero;"/><path d="M283,56.099l13.2,0l-0.599,3.601l-8.801,0l-1.199,5.5l7.899,0l-0.7,3.599l-8,0l-1.3,6.3l8.9,0l-0.7,3.601l-13.5,0l4.8,-22.601Z" style="fill:#858588;fill-rule:nonzero;"/><path d="M354.6,56.099l13.199,0l-0.599,3.601l-8.8,0l-1.2,5.5l7.9,0l-0.7,3.599l-7.901,0l-1.399,6.3l8.899,0l-0.7,3.601l-13.5,0l4.801,-22.601Z" style="fill:#858588;fill-rule:nonzero;"/><path d="M300.3,56.099l4.399,0l-0.7,3.601l-1.099,5.5l-0.701,3.599l-1.399,6.3l8.899,0l-0.7,3.601l-13.5,0l4.8,-22.601Z" style="fill:#858588;fill-rule:nonzero;"/><path d="M332.8,65.7c0,3.7 -1.399,7.3 -3.8,10c-2.399,2.6 -5.8,3.8 -9.599,3.8c-5.601,0 -8.901,-4 -8.901,-9.401c0,-3.599 1.3,-7.099 3.5,-9.699c2.5,-2.801 5.601,-4.2 9.3,-4.2c6.2,-0.101 9.5,3.5 9.5,9.5m-17.5,4.6c0,2.9 1.5,5.6 4.7,5.6c5.2,0 8,-6.2 8,-10.7c0,-3 -1.599,-5.5 -4.8,-5.5c-5.2,0 -7.9,6.1 -7.9,10.6" style="fill:#858588;fill-rule:nonzero;"/><path d="M370.9,56.099l5.3,0c4.2,0 9,-0.1 9,5.301c0,3.899 -2.901,5.899 -6.6,6l0,0.099c1.199,0.1 2,0.8 2.3,2.1l2.2,9.101l-4.7,0l-1.101,-5.3c-0.5,-2.401 -0.399,-4.101 -2.799,-4.101l-1.8,0l-2,9.401l-4.5,0l4.7,-22.601Zm2.6,9.601l1.6,0c2.4,0 5.4,-0.701 5.4,-3.701c0,-2.4 -2,-2.4 -3.9,-2.4l-1.9,0l-1.2,6.101Z" style="fill:#858588;fill-rule:nonzero;"/><path d="M339,68.799l-2.2,9.9l-4.5,0l4.7,-22.5l5.3,0c4.2,0 9,-0.1 9,5.3c0,3.901 -3.1,7.3 -6.8,7.3m-4.8,-3.5l1.5,0c2.401,0 5.401,-0.3 5.401,-3.3c0,-2.4 -2,-2.4 -3.901,-2.4l-1.9,0l-1.1,5.7Z" style="fill:#858588;fill-rule:nonzero;"/><path d="M278.5,60.599l-8,18.101l-5.5,0l-1.5,-22.601l4.601,0l0.599,17.301l0.1,0l7.5,-17.301l3.9,0" style="fill:#858588;fill-rule:nonzero;"/><path d="M280.5,56.099l-4.2,0l-7.5,17.301l-0.1,0l-0.599,-17.301l-4.601,0l1.5,22.601l5.5,0l8,-18.101l2,-4.5Z" style="fill:#858588;fill-rule:nonzero;"/><path d="M227,56.099l6.8,0c4.7,0 10.1,1.801 10.1,9.601c0,5.2 -2.6,12.899 -14,12.899l-7.6,0l4.7,-22.5Zm0.601,19l2.099,0c6.5,0 9.5,-3.8 9.5,-10c0,-3.5 -2.7,-5.399 -6.8,-5.399l-1.5,0l-3.299,15.399Z" style="fill:#858588;fill-rule:nonzero;"/></svg>