<svg fill="none" height="48" viewBox="0 0 48 48" width="48" xmlns="http://www.w3.org/2000/svg"><path d="m25.1133 43.2738c3.8211-1.603 9.2944-4.5967 14.015-10.1184 2.4593-2.8727 5.998-7.1271 6.7851-13.4528.3314-2.6602.8353-6.7095-1.7853-10.2803-3.4897-4.75463-9.6041-4.6873-10.0077-4.67688-3.7023.10099-6.2885 1.92365-6.9344 2.40457-.8059.5986-1.5337 1.29545-2.1665 2.07434-.1132.13936-.2543.25359-.4142.33538-.16.08178-.3352.12933-.5146.13959s-.3589-.01699-.5271-.08001c-.1683-.06302-.3215-.16041-.4499-.28596-1.1961-1.17483-2.6-2.11788-4.1404-2.78128-.9228-.39515-6.7884-2.77087-12.02172.66526-5.27505 3.46499-6.400029 10.37729-4.18698 15.95829 2.38878 6.0115 6.89191 10.8406 12.1164 14.5236.329.2325.6612.4617.9926.691 2.8792 1.9814 5.9801 3.6204 9.2397 4.8836z" fill="#f9001d"/><path d="m24.465 40.9494c.1427.0568.2953.0846.4489.0819.1537-.0028.3052-.036.4458-.0979 3.2979-1.4427 7.8267-4.0229 11.7561-8.6196 2.1416-2.5048 5.2229-6.2054 5.9089-11.7127.2881-2.3172.727-5.8431-1.555-8.953-3.0388-4.14064-8.3627-4.08213-8.715-4.07251-3.2233.08737-5.4757 1.67198-6.0381 2.08957-.6912.51404-1.3167 1.11084-1.8624 1.77694-.1015.1249-.2279.2272-.3712.3005-.1432.0734-.3002.1161-.4609.1256-.1607.0094-.3216-.0147-.4725-.0708-.1508-.0561-.2884-.143-.4038-.2551-1.037-1.0105-2.2512-1.82204-3.5819-2.39412-.8024-.34145-5.9106-2.41259-10.46668.5803-2.45778 1.61432-4.07624 4.43482-4.54646 7.30592-.54483 3.3343.62588 6.1717 2.12318 9.0692 2.95047 5.7044 7.43196 8.8673 10.19066 10.7693 2.3752 1.6346 4.9242 3.0017 7.6004 4.0765z" fill="#ff444e" opacity=".53"/><g fill="#000"><path d="m10.9572 20.1835-.0562-.0857c-.0176-.0273-.0337-.0521-.0489-.0802-.0313-.0537-.0586-.1066-.0851-.1603-.0514-.1096-.0946-.223-.1292-.339-.0702-.2382-.1064-.4851-.1075-.7334-.0035-.5443.1573-1.0769.4614-1.5285.0393-.0585.0802-.117.1204-.1747l.138-.1603c.0931-.107.1951-.2059.3049-.2958.1093-.0922.2251-.1763.3466-.2517.0594-.0417.126-.0697.1886-.105s.1268-.0681.1934-.0938c.2593-.1106.5312-.1892.8096-.234.2652-.0425.5343-.0557.8024-.0393.2574.0148.5127.0548.7623.1194.1281.0323.2543.0716.378.1179.1244.047.2462.1005.365.1603.4606.2354.8632.5699 1.1788.9794.609.7911.8425 1.7722.6893 2.6451-.0144.079-.053.1515-.1106.2076-.0575.0561-.1311.0928-.2105.1052-.0795.0123-.1608-.0004-.2327-.0363-.0718-.036-.1307-.0934-.1684-.1643l-.0137-.0265c-.1566-.3107-.3448-.6045-.5616-.8768-.1886-.2396-.4123-.4493-.6636-.622-.2172-.1533-.4594-.2678-.7158-.3383l-.0449-.0136-.045-.0088-.089-.0192c-.0554-.0097-.1196-.0185-.1854-.0257-.1298-.0126-.2604-.0169-.3908-.0128-.1195.0045-.2384.0193-.3554.0441-.0273.0072-.0538.0136-.0803.0192-.0264.0056-.0505.0168-.0802.024-.0494.0149-.0979.0326-.1452.0529l-.1348.0658c-.0209.0128-.0426.0256-.065.0376-.0225.0121-.0233.0105-.0345.0169l-.0313.0224c-.0213.015-.0436.0287-.0666.0409-.0223.0146-.0437.0304-.0642.0473l-.0666.0457-.0618.0521c-.0896.074-.1738.1544-.252.2404-.0889.1028-.1706.2115-.2447.3254-.0417.0618-.0802.1283-.1204.198l-.0601.1074c-.0169.0369-.0386.0746-.0586.113-.0201.0385-.0361.0802-.0578.1187l-.0578.1226-.0569.1274c-.0089.0201-.0209.0433-.0305.0634-.0082.0205-.019.0399-.0321.0577l-.1324.1731c-.0591.0764-.146.1263-.2418.1388-.0958.0124-.1927-.0136-.2694-.0723-.0312-.0259-.058-.0568-.0794-.0914z"/><path d="m35.5479 20.226c-.0119-.0186-.0215-.0385-.0289-.0593-.0088-.02-.0193-.0441-.0273-.0649l-.0513-.129-.0522-.1259c-.0193-.0417-.0353-.0801-.0522-.121-.0168-.0409-.0377-.0802-.0529-.1154l-.0554-.1106c-.0345-.0714-.0722-.1395-.1107-.2028-.0688-.1173-.1454-.2298-.2295-.3367-.0741-.0885-.1546-.1715-.2407-.2484l-.0586-.0553c-.0225-.0161-.0441-.0321-.065-.0489-.0209-.0169-.0377-.0361-.061-.0497-.0227-.0131-.0444-.0279-.065-.0441l-.0305-.0233c-.0104-.008-.0232-.012-.0337-.0192-.0104-.0072-.0425-.0265-.0634-.0401-.0433-.0248-.0874-.0473-.1316-.0721-.046-.0227-.0935-.0425-.142-.0593-.0257-.008-.0489-.0209-.0754-.0281l-.0802-.0224c-.1158-.03-.2339-.0504-.3531-.0609-.13-.0101-.2606-.0117-.3908-.0048-.0658 0-.13.0096-.1861.0168l-.0899.016-.0457.0064-.045.0104c-.2594.0591-.5067.1624-.731.3054-.2589.1611-.4921.3603-.6917.5907-.228.2626-.4288.5475-.5994.8505l-.0136.024c-.0405.0698-.1019.1252-.1755.1585-.0736.0332-.1558.0425-.235.0267s-.1515-.056-.2067-.115c-.0551-.0589-.0905-.1336-.101-.2137-.1131-.8776.1661-1.8435.8113-2.6089.3339-.3949.7516-.7106 1.2229-.9242.1213-.0553.2456-.104.3723-.1459.1254-.041.2532-.0744.3827-.1001.2523-.0514.5089-.0783.7663-.0802.2695-.0039.5386.0216.8024.0762.2756.0577.5432.1487.7968.2709.0658.0288.1268.0681.1894.1034.063.0328.1241.0692.1829.109.1184.0807.2305.1702.3355.2677.1055.0946.2027.1981.2904.3094l.1308.1659c.0385.0593.0754.1194.1124.1795.1442.2382.2523.4964.3209.7663.0612.256.0858.5194.073.7823-.0127.2477-.0602.4924-.1412.7269-.0398.1143-.0881.2255-.1444.3327-.0297.0545-.0586.1058-.0931.1603-.016.0272-.0337.0513-.0522.0801l-.0601.0802c-.0281.0387-.0636.0715-.1044.0965-.0407.0249-.0861.0416-.1333.0491-.0473.0074-.0956.0055-.1421-.0057-.0465-.0113-.0903-.0316-.129-.0598-.0327-.0233-.0612-.052-.0842-.0849z"/><path d="m20.7498 23.7495c.2287.1603.4277.291.6187.4072.0987.0561.1845.1114.2784.1603s.1741.0922.2624.1299c.2834.1309.5821.226.8891.2829.2283.0357.4584.0592.6893.0705.2094.0104.4068.0096.6026.0128.4314.0084.8627-.0222 1.2886-.0913.3104-.0617.6116-.1627.8963-.3006.1864-.0872.3681-.1843.5441-.291.1917-.1154.3915-.246.6202-.4007l.0682-.0457c.0139-.0096.0303-.0148.0472-.0152s.0335.0042.0479.0131c.0143.009.0257.0219.0327.0372.0071.0153.0095.0324.007.0491-.0299.209-.079.4148-.1468.6147-.0662.2011-.1486.3965-.2463.5843-.1992.3801-.4641.722-.7824 1.01-.6554.5766-1.4978.8963-2.3711.9001-.4334-.0027-.8632-.0789-1.271-.2253-.4072-.1473-.7835-.3688-1.1098-.6532-.3194-.286-.5852-.6266-.7847-1.0059-.1947-.3763-.3244-.7828-.3836-1.2023-.0016-.0114-.0009-.0231.0021-.0342.0029-.0112.0081-.0216.0151-.0308s.0157-.0168.0257-.0226.0211-.0095.0325-.011c.0215-.0024.0432.003.061.0152z"/></g><g fill="#ff6c71" opacity=".52"><path d="m10.9676 26.748c1.3158 0 2.3824-1.0654 2.3824-2.3797s-1.0666-2.3797-2.3824-2.3797c-1.3157 0-2.38232 1.0654-2.38232 2.3797s1.06662 2.3797 2.38232 2.3797z" opacity=".52"/><path d="m13.6445 24.4316c-.0131.3507-.0949.6955-.2407 1.0148-.2154.4766-.5678.8785-1.0125 1.1545-.4446.2761-.9614.4138-1.4846.3956-.3449-.0087-.6835-.0932-.99183-.2477-.07542-.04-.14764-.0865-.21986-.129-.07221-.0425-.13801-.0994-.20702-.1467-.069-.0473-.12919-.1074-.19579-.1603s-.12357-.1146-.18696-.1699c-.24423-.2394-.44705-.5175-.6002-.8232-.15508-.3158-.23525-.663-.2343-1.0147.0033-.3545.07885-.7046.22204-1.029.1432-.3244.35104-.6163.61086-.8578.5215-.4854 1.21326-.7462 1.92576-.7262.3513.0122.6973.0891 1.0207.2269.3275.1331.6231.3338.8674.5891.2436.2559.4334.558.5583.8884.1248.3303.1822.6823.1687 1.0352zm-.5906-.0136c.0025-.5496-.2093-1.0785-.5906-1.4748-.1883-.1963-.41-.3578-.6547-.4769-.2488-.1144-.519-.1751-.7928-.1779-.2725-.0039-.5431.0463-.7961.1476-.25303.1012-.48344.2516-.67795.4423-.38889.3825-.61825.898-.64192 1.4427-.01298.2743.01624.5489.08666.8144.07242.2756.20814.5305.39639.7446.04975.0513.1003.1018.15326.1515s.11394.0873.17252.1274c.05857.0401.12517.0713.18856.1026s.13158.0561.19818.0802c.2634.0985.5413.1526.8225.1603.562.0036 1.1026-.2151 1.5037-.6084.3984-.3893.6258-.9206.6323-1.4772z" opacity=".52"/></g><g fill="#ff696b" opacity=".52"><path d="m10.8625 25.6828c.7281 0 1.3184-.5896 1.3184-1.3169s-.5903-1.3169-1.3184-1.3169-1.31834.5896-1.31834 1.3169.59024 1.3169 1.31834 1.3169z" opacity=".52"/><path d="m12.4738 24.4036c-.0169.4247-.2012.8255-.5128 1.1149-.1525.141-.3315.2503-.5267.3215-.1953.0711-.4027.1027-.6103.0929-.2054-.0065-.4064-.0615-.5866-.1603-.0433-.0265-.085-.0553-.1267-.0802l-.11879-.0913c-.03771-.0329-.07462-.065-.11314-.0954-.03851-.0305-.07302-.0658-.11073-.0978-.14911-.1377-.27653-.2972-.37794-.4729-.10449-.1853-.15974-.3941-.16048-.6068.00035-.215.04515-.4277.13158-.6246.08644-.197.21265-.374.37073-.5199.31767-.2909.73687-.4454 1.16747-.4305.2118.0082.4205.0538.6163.1347.1996.0773.3798.1974.528.3519.1459.1554.2591.3385.333.5384s.1069.4125.0971.6254zm-.5906-.0137c-.0041-.2678-.1103-.5241-.2969-.7165-.0911-.0967-.1973-.1779-.3145-.2405-.1212-.0583-.2539-.0887-.3884-.0889-.1329-.0003-.2646.0259-.3872.0771s-.2338.1263-.327.221c-.18556.1875-.29676.4358-.3129.699-.00988.1355-.00504.2718.01445.4063.02185.1449.08195.2813.17415.3952.0248.0264.0497.0537.0802.0801.029.0228.0593.044.0907.0634.0337.0168.0666.0336.1003.0472.0337.0137.0698.0233.1043.0329.1355.0415.2763.0637.4181.0657.2794-.0042.5464-.1165.7446-.3134.193-.1935.3017-.4554.3025-.7286z" opacity=".52"/></g><g fill="#ff6c71" opacity=".52"><path d="m36.7804 26.5517c1.3157 0 2.3824-1.0655 2.3824-2.3798 0-1.3142-1.0667-2.3797-2.3824-2.3797s-2.3824 1.0655-2.3824 2.3797c0 1.3143 1.0667 2.3798 2.3824 2.3798z" opacity=".52"/><path d="m39.4572 24.2337c-.0109.3498-.0908.694-.2351 1.013-.1443.3189-.3502.6063-.6058.8457-.5135.4776-1.1957.7322-1.8969.7077-.3445-.009-.6828-.0936-.991-.2476-.0754-.0409-.1476-.0866-.2206-.1299-.0731-.0433-.1373-.0986-.2063-.1467s-.13-.1074-.1966-.1603-.1227-.1138-.1861-.1699c-.2447-.2387-.4475-.5167-.6002-.8224-.1551-.3149-.2352-.6613-.2343-1.0123.0033-.3546.0787-.7048.2216-1.0294s.3503-.6169.6097-.859c.5218-.4849 1.2133-.7457 1.9258-.7261.3514.0128.6976.0897 1.0214.2268.3272.1335.6225.3346.8666.5899.2436.2559.4335.558.5583.8884.1249.3304.1822.6824.1687 1.0353zm-.5906-.0137c.0029-.5496-.209-1.0787-.5905-1.4748-.1877-.1978-.4092-.3606-.654-.4809-.249-.1145-.5194-.1751-.7936-.1779-.2725-.0038-.5431.0463-.7961.1476-.253.1012-.4834.2516-.6779.4423-.3893.3823-.6187.8979-.6419 1.4427-.0129.2743.0161.5488.0858.8144.0726.2757.2086.5307.3972.7446.0498.0513.1003.1026.1525.1515.0521.0489.1139.0882.1733.1282.0594.0401.1244.0714.1886.1026.0642.0313.1308.0553.1974.0802.2636.0985.5418.1526.8232.1603.562.0028 1.1024-.2162 1.5037-.6092.3977-.3874.6251-.9167.6323-1.4716z" opacity=".52"/></g><g fill="#ff696b" opacity=".52"><path d="m36.6753 25.4864c.7281 0 1.3183-.5896 1.3183-1.3169s-.5902-1.3169-1.3183-1.3169-1.3184.5896-1.3184 1.3169.5903 1.3169 1.3184 1.3169z" opacity=".52"/><path d="m38.2889 24.2064c-.0159.4247-.2001.8258-.5119 1.1149-.1526.1412-.3318.2506-.5271.3219-.1954.0713-.403.103-.6107.0933-.2054-.0071-.4062-.062-.5866-.1603-.0433-.0264-.0851-.0553-.1268-.0802l-.1179-.0913c-.0377-.0321-.0747-.0641-.114-.0946s-.073-.0657-.1099-.0986c-.1494-.1374-.277-.2966-.3787-.4721-.1045-.1853-.1597-.3941-.1605-.6067.0004-.2147.0449-.4271.1309-.6238.086-.1968.2116-.3738.369-.52.318-.2907.7375-.4449 1.1683-.4296.2118.0078.4205.0534.6162.1346.1991.0776.379.1973.5272.3511.1463.1548.2599.3374.3342.5369s.1078.4118.0983.6245zm-.5906-.0136c-.0041-.2675-.11-.5234-.296-.7158-.0914-.0967-.1979-.1779-.3154-.2404-.1208-.0586-.2533-.0892-.3876-.0898-.1329-.0001-.2645.0263-.3872.0777-.1226.0513-.2337.1265-.3269.2213-.1857.1873-.297.4357-.3129.6989-.0099.1353-.0051.2713.0144.4056.0214.1448.0812.2812.1733.3951.0257.0273.0506.0545.0803.0802.0289.0231.0591.0445.0906.0641.0329.0168.0666.0328.1003.0465.0337.0136.0698.024.1044.0336.1356.0412.2763.0633.418.0658.2796-.0045.5465-.1172.7446-.3142.1929-.1942.3008-.4568.3001-.7302z" opacity=".52"/></g><path d="m25.1077 42.8787c.126-.0729.2488-.1411.3731-.2044.0618-.0313.1244-.0617.187-.0914l.2295-.1114.4654-.2268c.1549-.0754.3073-.1563.4606-.2349.1532-.0785.3081-.1547.4598-.2364l.4549-.2445c.3049-.1603.6018-.3358.9011-.5057 1.1916-.685 2.3451-1.4342 3.4552-2.2443 1.1089-.8069 2.1719-1.6749 3.184-2.6001 1.0123-.9214 1.9686-1.9023 2.8638-2.9376.4485-.509.8939-1.05 1.3272-1.583s.8585-1.0725 1.2605-1.6231c.8094-1.0903 1.5352-2.24 2.1714-3.4394.6309-1.1866 1.1437-2.4323 1.531-3.719.093-.3206.1741-.6469.2616-.9691l.0369-.121.0248-.1226.0514-.2453.1019-.4913c.016-.0802.0361-.1603.0489-.2461l.0362-.2485.0738-.4961c.0529-.3206.089-.6773.1292-1.0163.1604-1.3586.2407-2.694.1131-3.998-.1276-1.3041-.4485-2.5649-1.0319-3.7079-.5864-1.147-1.3954-2.16604-2.3799-2.99769-1.0011-.8335-2.1421-1.48317-3.3702-1.91884-1.2429-.44613-2.5435-.71174-3.862-.7887-.1605-.00802-.3257-.01363-.4814-.01363h-.0538-.061l-.1227.00561-.2448.01203c-.0802.00561-.1604.00561-.2407.01442l-.2407.02565c-.1605.01844-.325.03046-.4863.06012-.6488.09462-1.2879.24671-1.9097.45446-1.2517.40732-2.4244 1.02568-3.4672 1.82827-.5194.40347-1.0027.85134-1.4444 1.33855-.1107.12183-.2177.24607-.3209.37271l-.0426.04969-.0658.07454-.0674.07294c-.024.02325-.0497.04489-.0738.06733-.05.0478-.1034.092-.1597.13224-.0535.04-.1096.0767-.1677.1098-.3482.2025-.75.2937-1.1516.2615s-.7838-.1864-1.0951-.44182l-.0746-.06493-.0369-.03366-.0289-.02725-.0899-.08576c-.0594-.05852-.1204-.11462-.1813-.17073-.2429-.22496-.4941-.44084-.7535-.64763-.5179-.41342-1.0677-.78541-1.6442-1.11251-.5752-.32593-1.1757-.60523-1.7957-.83519-.6259-.22998-1.2666-.41743-1.9178-.56107-.6502-.14482-1.3098-.24339-1.9739-.29496-.6599-.0537-1.323-.0537-1.9828 0-1.3118.09941-2.59361.4416-3.78015 1.00912-1.18185.57304-2.24532 1.3629-3.13502 2.32842-.88796.96937-1.59264 2.09147-2.07984 3.31187-.48965 1.2292-.78368 2.5273-.87142 3.8473-.08845 1.3273.00768 2.6603.28566 3.9612.13776.6503.31952 1.2906.54403 1.9164l.17733.4665.199.4673c.1332.3126.26078.6268.41324.9298l.22066.4584.10673.2301c.03691.0761.08024.1498.11875.2252.16048.299.31615.6003.48145.8977l.52317.8777c.17894.2893.3675.5723.55126.8584.75784 1.1327 1.58735 2.2159 2.48346 3.243.89716 1.032 1.85589 2.009 2.87099 2.9255 1.0164.9186 2.0748 1.7898 3.1752 2.6138.2776.2028.5496.4088.8313.6107l.8401.6036c.5622.3938 1.1325.7775 1.7107 1.151.5786.3711 1.1635.7342 1.7597 1.078.5962.3439 1.194.6853 1.8046 1.0043.6107.319 1.2253.6332 1.8456.9306.3113.1499.6243.295.9388.4384l.4718.2132c.1149.052.2257.1126.3314.1812zm.0104.7903c-.2126-.0569-.4316-.1242-.6459-.202l-.4959-.1819c-.329-.1261-.6569-.2549-.9837-.3864-.6516-.2671-1.297-.5501-1.9363-.8488-.6419-.2998-1.2686-.6188-1.8928-.949-.6243-.3302-1.2358-.6837-1.8456-1.042l-.4525-.2749-.4462-.2837c-.2993-.1868-.5914-.3864-.8875-.5795l-.8706-.59c-.2912-.1955-.5769-.4071-.865-.6107-1.1483-.8297-2.2531-1.7179-3.3099-2.6611-1.06055-.9451-2.06323-1.9531-3.00263-3.0185-.9434-1.0681-1.81486-2.1975-2.60864-3.3808-.79877-1.1849-1.50279-2.4309-2.10552-3.7263-.16048-.3206-.29449-.6509-.43411-.9803l-.20862-.4937-.19258-.5114c-.24549-.6859-.44361-1.3878-.59298-2.1008-.30239-1.4292-.40447-2.8934-.30331-4.3506.09998-1.4647.43119-2.9044.98135-4.2658.55433-1.3706 1.35279-2.62962 2.35668-3.71582 1.00807-1.08615 2.21177-1.97311 3.54825-2.61457 1.33494-.63934 2.77681-1.02632 4.25281-1.14137.7306-.05931 1.4648-.05931 2.1954 0 .7267.05562 1.4485.16276 2.1601.32061.7111.15645 1.4108.36077 2.0942.61156.6877.25529 1.3539.56485 1.9924.92576.6381.36104 1.2478.76993 1.8239 1.22313.2873.22603.5657.46221.8353.70854.0674.06172.1348.12344.2006.18676l.0987.09458.0546.04809c.0638.05156.1375.08948.2166.11141.0789.02203.1614.02792.2426.01732.0813-.01061.1595-.03749.2301-.07903.0176-.00926.0343-.02027.0497-.03287.0172-.01127.0331-.02444.0473-.03927l.0233-.02004.0201-.02405.0216-.02244.041-.05049c.1163-.14268.2351-.28294.3578-.42.4896-.55207 1.0266-1.06031 1.6049-1.51889.2872-.22923.5897-.44885.8987-.65084.3089-.20198.6274-.38793.95-.56106.6479-.35077 1.3231-.64884 2.0189-.8913.6983-.24405 1.4168-.4259 2.1472-.54343.1814-.03607.3667-.0529.5505-.07614l.276-.03046c.0883-.01122.1846-.01363.2768-.02004l.2777-.01763.1388-.00882h.0698.0762c.1966 0 .3812 0 .5673.00802 1.4712.06442 2.9253.34142 4.317.82236.7003.24424 1.3793.54556 2.0301.90091.6561.35896 1.2758.78067 1.8504 1.25919 1.1609.96297 2.1136 2.15166 2.8004 3.49382.6714 1.3413 1.0799 2.7985 1.2036 4.293.1372 1.4724.0337 2.9344-.1356 4.3386-.0433.3535-.0803.6925-.1453 1.0548l-.085.5363-.0433.2685c-.0145.0889-.0369.1771-.0554.2653l-.1164.5306-.0577.2653-.0297.1322-.0361.1315c-.0979.3478-.1902.6981-.2945 1.042-.4295 1.3775-.995 2.709-1.6883 3.9747-.6931 1.2527-1.4801 2.4512-2.3543 3.5852-.43.5675-.8826 1.1149-1.3328 1.6552-.4501.5402-.9115 1.062-1.397 1.5878-1.9101 2.1-4.0631 3.9662-6.4136 5.5594-1.17.7938-2.3838 1.5211-3.6357 2.1785-.3138.1603-.6251.327-.9445.4809l-.4758.2309c-.1605.0761-.321.1482-.4815.222-.1604.0737-.3209.1467-.4814.2164l-.4863.2076-.2455.105c-.0971.0401-.195.0801-.2929.1162-.199.0713-.3956.1419-.5898.206z" fill="#000"/></svg>